<svg width="90" height="75" viewBox="0 0 90 75" fill="none" xmlns="http://www.w3.org/2000/svg">
<path d="M3 46C7.97782 46 22.9934 46 17.995 46" stroke="#4289c1" stroke-width="3" stroke-linecap="round"/>
<path d="M20 47C18.0603 47.1331 16.2265 51.1357 14.8571 52.7333C13.088 54.7973 10.9771 56.5171 9.6 59C8.62142 60.7644 6.82908 62.4535 5.6 64.0667C4.23173 65.8625 4.05369 70.2013 2 71" stroke="#4289c1" stroke-width="3" stroke-linecap="round"/>
<path d="M2 72.5C3.403 72.5 4.75152 73 6.25 73C7.70961 73 8.96754 72 10.5 72C14 72 17.5 72 21 72" stroke="#4289c1" stroke-width="3" stroke-linecap="round"/>
<path d="M26 30C33.4667 30 55.9901 30 48.4926 30" stroke="#4289c1" stroke-width="3" stroke-linecap="round"/>
<path d="M51 32C48.1982 32.1664 45.5494 37.1697 43.5714 39.1667C41.0161 41.7466 37.9669 43.8964 35.9778 47C34.5643 49.2055 31.9753 51.3169 30.2 53.3333C28.2236 55.5782 27.9664 61.0017 25 62" stroke="#4289c1" stroke-width="3" stroke-linecap="round"/>
<path d="M25 63C27.0676 63 29.0549 64 31.2632 64C33.4142 64 35.268 62 37.5263 62C42.6842 62 47.8421 62 53 62" stroke="#4289c1" stroke-width="3" stroke-linecap="round"/>
<path d="M54 2C63.6445 2 92.7372 2 83.0529 2" stroke="#4289c1" stroke-width="3" stroke-linecap="round"/>
<path d="M86 5C82.4439 5.21632 79.0819 11.7206 76.5714 14.3167C73.3281 17.6706 69.4579 20.4653 66.9333 24.5C65.1393 27.3672 61.8533 30.1119 59.6 32.7333C57.0915 35.6516 56.7651 42.7022 53 44" stroke="#4289c1" stroke-width="3" stroke-linecap="round"/>
<path d="M53 45.5C55.5845 45.5 58.0686 47 60.8289 47C63.5177 47 65.8349 44 68.6579 44C75.1053 44 81.5526 44 88 44" stroke="#4289c1" stroke-width="3" stroke-linecap="round"/>
</svg>
